<svg width="95" height="77" viewBox="0 0 95 77" fill="none" xmlns="http://www.w3.org/2000/svg">
<path d="M13.3809 66.5781C13.2507 69.5404 9.65365 71.347 2.58984 71.998C2.32943 72.5189 2.32943 73.2839 2.58984 74.293C8.74219 74.0977 13.1042 74 15.6758 74C19.7448 74 24.3835 74.0977 29.5918 74.293C29.8522 73.2839 29.8522 72.5189 29.5918 71.998C22.4629 71.347 18.8659 69.5404 18.8008 66.5781C18.4753 56.4544 18.3125 47.6328 18.3125 40.1133C18.3125 29.8268 18.4427 20.7285 18.7031 12.8184H19.1914L43.0195 72.7793H43.5078L65.7734 13.9902H66.2129C66.5384 23.7884 66.7012 32.4961 66.7012 40.1133C66.7012 50.6927 66.5384 59.7259 66.2129 67.2129C66.1478 68.0592 65.7572 68.7917 65.041 69.4102C64.3574 69.9961 63.332 70.4681 61.9648 70.8262C60.5977 71.1517 59.4421 71.3796 58.498 71.5098C57.554 71.64 56.3496 71.7702 54.8848 71.9004C54.6243 72.4212 54.6243 73.1862 54.8848 74.1953C60.4186 74 66.0827 73.9023 71.877 73.9023C78.8105 73.9023 85.4837 74 91.8965 74.1953C92.1569 73.6094 92.1569 72.8444 91.8965 71.9004C81.0892 71.2493 75.653 69.7194 75.5879 67.3105C75.1973 57.0892 75.002 46.819 75.002 36.5C75.002 26.5065 75.1322 17.4082 75.3926 9.20508C75.4577 6.79622 80.8939 5.26628 91.7012 4.61523C91.9616 3.67122 91.9616 2.90625 91.7012 2.32031C85.2884 2.51562 76.7598 2.61328 66.1152 2.61328L45.3145 56.9102L25.2949 2.61328C17.3522 2.61328 10.321 2.48307 4.20117 2.22266C3.87565 2.8737 3.87565 3.49219 4.20117 4.07812C8.07487 4.63151 10.5977 5.44531 11.7695 6.51953C12.974 7.5612 13.6087 9.98633 13.6738 13.7949C13.9017 21.8027 14.0156 29.3711 14.0156 36.5C14.0156 46.3633 13.804 56.3893 13.3809 66.5781ZM11.3789 66.5781C11.8021 56.3242 12.0137 46.2982 12.0137 36.5C12.0137 29.3711 11.8997 21.8027 11.6719 13.7949C11.6068 10.8001 11.0208 8.87956 9.91406 8.0332C8.83984 7.1543 6.49609 6.4707 2.88281 5.98242C1.97135 3.99674 2.00391 2.04362 2.98047 0.123047C10.4674 0.448568 20.2005 0.611328 32.1797 0.611328L48.1953 43.3848L64.6992 0.611328C73.4232 0.611328 83.0586 0.48112 93.6055 0.220703C94.2565 2.33659 94.3216 4.4362 93.8008 6.51953C86.6068 7.23568 82.9772 8.19596 82.9121 9.40039C82.6191 15.5202 82.4727 24.5534 82.4727 36.5C82.4727 48.8372 82.6842 59.0423 83.1074 67.1152C83.1725 68.3197 86.8021 69.2799 93.9961 69.9961C94.5169 72.0794 94.4518 74.179 93.8008 76.2949C83.2539 76.0345 77.1178 75.9043 75.3926 75.9043C72.7884 75.9043 65.4967 76.0345 53.5176 76.2949C52.7038 74.0163 52.7038 71.9167 53.5176 69.9961C60.5814 69.2799 64.1458 68.3522 64.2109 67.2129C64.5365 59.5957 64.6992 50.5625 64.6992 40.1133C64.6992 31.9753 64.6667 26.002 64.6016 22.1934L44.875 74.7812H41.6035L20.3145 21.1191V40.1133C20.3145 47.6328 20.4772 56.4544 20.8027 66.5781C20.8678 68.3359 24.4323 69.5078 31.4961 70.0938C32.3099 72.0469 32.3099 74.1465 31.4961 76.3926C21.763 76.002 11.6556 76.002 1.17383 76.3926C0.392578 74.1465 0.392578 72.0469 1.17383 70.0938C7.91211 69.4427 11.3138 68.2708 11.3789 66.5781Z" fill="#D9D9D9"/>
</svg>
