<svg width="312" height="81" viewBox="0 0 312 81" fill="none" xmlns="http://www.w3.org/2000/svg">
<path d="M13.3809 69.5781C13.2507 72.5404 9.65365 74.347 2.58984 74.998C2.32943 75.5189 2.32943 76.2839 2.58984 77.293C8.74219 77.0977 13.1042 77 15.6758 77C19.7448 77 24.3835 77.0977 29.5918 77.293C29.8522 76.2839 29.8522 75.5189 29.5918 74.998C22.4629 74.347 18.8659 72.5404 18.8008 69.5781C18.4753 59.4544 18.3125 50.6328 18.3125 43.1133C18.3125 32.8268 18.4427 23.7285 18.7031 15.8184H19.1914L43.0195 75.7793H43.5078L65.7734 16.9902H66.2129C66.5384 26.7884 66.7012 35.4961 66.7012 43.1133C66.7012 53.6927 66.5384 62.7259 66.2129 70.2129C66.1478 71.0592 65.7572 71.7917 65.041 72.4102C64.3574 72.9961 63.332 73.4681 61.9648 73.8262C60.5977 74.1517 59.4421 74.3796 58.498 74.5098C57.554 74.64 56.3496 74.7702 54.8848 74.9004C54.6243 75.4212 54.6243 76.1862 54.8848 77.1953C60.4186 77 66.0827 76.9023 71.877 76.9023C78.8105 76.9023 85.4837 77 91.8965 77.1953C92.1569 76.6094 92.1569 75.8444 91.8965 74.9004C81.0892 74.2493 75.653 72.7194 75.5879 70.3105C75.1973 60.0892 75.002 49.819 75.002 39.5C75.002 29.5065 75.1322 20.4082 75.3926 12.2051C75.4577 9.79622 80.8939 8.26628 91.7012 7.61523C91.9616 6.67122 91.9616 5.90625 91.7012 5.32031C85.2884 5.51562 76.7598 5.61328 66.1152 5.61328L45.3145 59.9102L25.2949 5.61328C17.3522 5.61328 10.321 5.48307 4.20117 5.22266C3.87565 5.8737 3.87565 6.49219 4.20117 7.07812C8.07487 7.63151 10.5977 8.44531 11.7695 9.51953C12.974 10.5612 13.6087 12.9863 13.6738 16.7949C13.9017 24.8027 14.0156 32.3711 14.0156 39.5C14.0156 49.3633 13.804 59.3893 13.3809 69.5781ZM11.3789 69.5781C11.8021 59.3242 12.0137 49.2982 12.0137 39.5C12.0137 32.3711 11.8997 24.8027 11.6719 16.7949C11.6068 13.8001 11.0208 11.8796 9.91406 11.0332C8.83984 10.1543 6.49609 9.4707 2.88281 8.98242C1.97135 6.99674 2.00391 5.04362 2.98047 3.12305C10.4674 3.44857 20.2005 3.61133 32.1797 3.61133L48.1953 46.3848L64.6992 3.61133C73.4232 3.61133 83.0586 3.48112 93.6055 3.2207C94.2565 5.33659 94.3216 7.4362 93.8008 9.51953C86.6068 10.2357 82.9772 11.196 82.9121 12.4004C82.6191 18.5202 82.4727 27.5534 82.4727 39.5C82.4727 51.8372 82.6842 62.0423 83.1074 70.1152C83.1725 71.3197 86.8021 72.2799 93.9961 72.9961C94.5169 75.0794 94.4518 77.179 93.8008 79.2949C83.2539 79.0345 77.1178 78.9043 75.3926 78.9043C72.7884 78.9043 65.4967 79.0345 53.5176 79.2949C52.7038 77.0163 52.7038 74.9167 53.5176 72.9961C60.5814 72.2799 64.1458 71.3522 64.2109 70.2129C64.5365 62.5957 64.6992 53.5625 64.6992 43.1133C64.6992 34.9753 64.6667 29.002 64.6016 25.1934L44.875 77.7812H41.6035L20.3145 24.1191V43.1133C20.3145 50.6328 20.4772 59.4544 20.8027 69.5781C20.8678 71.3359 24.4323 72.5078 31.4961 73.0938C32.3099 75.0469 32.3099 77.1465 31.4961 79.3926C21.763 79.002 11.6556 79.002 1.17383 79.3926C0.392578 77.1465 0.392578 75.0469 1.17383 73.0938C7.91211 72.4427 11.3138 71.2708 11.3789 69.5781ZM134.816 65.1836C135.077 57.0456 135.077 48.8913 134.816 40.7207C134.816 39.5814 132.359 38.6048 127.443 37.791C126.695 35.8053 126.695 33.8359 127.443 31.8828H148.537C149.449 32.2409 150.1 32.6315 150.49 33.0547C150.913 33.4779 151.288 34.0964 151.613 34.9102C151.613 35.4961 151.532 36.4238 151.369 37.6934C151.206 38.9629 151.125 39.972 151.125 40.7207C150.799 51.4303 150.799 60.7565 151.125 68.6992C153.469 69.4479 155.943 69.8874 158.547 70.0176C159.263 71.9382 159.263 74.0052 158.547 76.2188C154.283 76.4792 149.009 77.944 142.727 80.6133C139.178 80.3529 136.542 79.2786 134.816 77.3906V76.1211C130.357 78.9857 125.067 80.418 118.947 80.418C114.52 80.418 111.379 79.2135 109.523 76.8047C107.668 74.3958 106.708 70.6198 106.643 65.4766C106.708 57.306 106.708 49.054 106.643 40.7207C106.643 39.5814 104.169 38.6048 99.2207 37.791C98.5046 35.8053 98.5046 33.8359 99.2207 31.8828H120.412C121.356 32.2409 122.023 32.6315 122.414 33.0547C122.837 33.4779 123.212 34.0964 123.537 34.9102C123.537 35.4961 123.456 36.4238 123.293 37.6934C123.13 38.9629 123.049 39.972 123.049 40.7207C122.821 48.3053 122.821 56.0365 123.049 63.9141C123.179 67.625 123.846 69.7897 125.051 70.4082C127.427 69.7897 130.682 68.0482 134.816 65.1836ZM136.818 40.7207C137.014 49.1842 137.014 57.6803 136.818 66.209C130.764 70.5384 126.092 72.7031 122.805 72.7031C118.345 72.7031 116.115 69.7734 116.115 63.9141C115.92 56.0365 115.92 48.3053 116.115 40.7207C116.115 39.8418 116.197 38.7839 116.359 37.5469C116.555 36.3099 116.652 35.5286 116.652 35.2031C116.294 34.4544 115.822 33.9499 115.236 33.6895C110.419 34.015 105.617 34.015 100.832 33.6895C100.572 34.4382 100.572 35.2031 100.832 35.9844C105.975 36.7982 108.579 38.377 108.645 40.7207C108.71 48.9889 108.71 57.2409 108.645 65.4766C108.579 69.9036 109.344 73.1751 110.939 75.291C112.535 77.3743 115.204 78.416 118.947 78.416C123.863 78.416 129.82 75.3724 136.818 69.2852V76.4141C137.079 76.9349 137.648 77.3581 138.527 77.6836C143.182 75.9583 149.221 74.8027 156.643 74.2168C156.903 73.403 156.903 72.638 156.643 71.9219C151.044 71.694 146.91 71.0267 144.24 69.9199C143.98 58.2988 143.98 48.5658 144.24 40.7207C144.24 39.8418 144.322 38.7839 144.484 37.5469C144.647 36.3099 144.729 35.5286 144.729 35.2031C144.403 34.4544 143.931 33.9499 143.312 33.6895C138.592 33.9499 133.824 33.9499 129.006 33.6895C128.745 34.4382 128.745 35.2031 129.006 35.9844C134.149 36.7982 136.753 38.377 136.818 40.7207ZM174.855 77.5859C173.293 78.1068 171.763 78.7415 170.266 79.4902C168.736 78.5462 167.727 77.5859 167.238 76.6094C167.303 76.4141 167.401 75.7467 167.531 74.6074C167.661 73.4681 167.792 72.1335 167.922 70.6035C168.085 69.0736 168.215 67.4948 168.312 65.8672C168.41 64.2396 168.459 62.8561 168.459 61.7168C169.989 61.0007 172.349 60.6426 175.539 60.6426C175.897 60.6426 176.255 60.6426 176.613 60.6426C176.971 60.6426 177.346 60.6589 177.736 60.6914C180.08 68.3086 183.286 72.4427 187.355 73.0938C189.016 72.8333 190.285 72.2311 191.164 71.2871C192.076 70.3105 192.531 69.2201 192.531 68.0156C192.531 67.1367 192.287 66.3229 191.799 65.5742C191.311 64.793 190.66 64.0768 189.846 63.4258C189.032 62.7747 188.072 62.1725 186.965 61.6191C185.891 61.0658 184.751 60.5286 183.547 60.0078C182.342 59.4544 181.122 58.9336 179.885 58.4453C178.648 57.9245 177.46 57.3874 176.32 56.834C175.116 56.2806 173.977 55.6133 172.902 54.832C171.828 54.0182 170.884 53.1068 170.07 52.0977C169.257 51.056 168.605 49.9167 168.117 48.6797C167.661 47.4427 167.434 46.1081 167.434 44.6758C167.434 43.1458 167.694 41.5508 168.215 39.8906C168.736 38.2305 169.631 36.7168 170.9 35.3496C172.17 33.9824 173.879 32.8594 176.027 31.9805C178.176 31.069 180.878 30.6133 184.133 30.6133C187.746 30.6133 190.415 30.8086 192.141 31.1992L193.947 30.6133H197.268C197.691 33.3802 198.195 35.9681 198.781 38.377C199.4 40.7858 200.083 43.0319 200.832 45.1152C199.432 46.515 197.74 47.2148 195.754 47.2148C194.647 45.9128 193.622 44.7409 192.678 43.6992C191.734 42.625 190.822 41.6973 189.943 40.916C189.097 40.1348 188.251 39.5 187.404 39.0117C186.59 38.5234 185.744 38.1816 184.865 37.9863C182.717 38.3444 181.643 39.321 181.643 40.916C181.643 42.1855 182.196 43.2923 183.303 44.2363C184.41 45.1803 185.793 46.043 187.453 46.8242C189.113 47.6055 190.92 48.3542 192.873 49.0703C194.859 49.7539 196.73 50.4863 198.488 51.2676C199.758 51.821 200.946 52.5371 202.053 53.416C203.192 54.2949 204.185 55.3203 205.031 56.4922C205.878 57.6315 206.545 58.9173 207.033 60.3496C207.521 61.7493 207.766 63.263 207.766 64.8906C207.766 67.2995 207.147 69.4642 205.91 71.3848C204.706 73.3053 203.094 74.9329 201.076 76.2676C199.09 77.6022 196.812 78.6276 194.24 79.3438C191.669 80.0599 189.048 80.418 186.379 80.418C181.789 80.418 177.948 79.474 174.855 77.5859ZM186.037 78.416C190.106 78.416 193.589 77.2116 196.486 74.8027C199.383 72.3939 200.832 69.6921 200.832 66.6973C200.832 63.7676 199.937 61.2448 198.146 59.1289C196.356 56.9805 194.191 55.3203 191.652 54.1484C189.113 52.9766 186.558 51.9023 183.986 50.9258C181.415 49.9167 179.234 48.7448 177.443 47.4102C175.653 46.0755 174.758 44.513 174.758 42.7227C174.758 40.444 175.604 38.7188 177.297 37.5469C178.99 36.375 180.975 35.7891 183.254 35.7891C185.663 35.7891 187.811 36.5378 189.699 38.0352C191.587 39.5326 193.898 41.9251 196.633 45.2129C197.512 45.2129 198.146 45.0013 198.537 44.5781C197.333 41.1276 195.542 38.2793 193.166 36.0332C190.822 33.7546 187.811 32.6152 184.133 32.6152C178.892 32.6152 175.132 33.8685 172.854 36.375C170.575 38.849 169.436 41.6159 169.436 44.6758C169.436 47.2799 170.298 49.5098 172.023 51.3652C173.781 53.1882 175.881 54.6042 178.322 55.6133C180.796 56.5898 183.254 57.5664 185.695 58.543C188.137 59.5195 190.22 60.7891 191.945 62.3516C193.671 63.9141 194.533 65.8021 194.533 68.0156C194.533 69.8711 193.736 71.5312 192.141 72.9961C190.546 74.4609 188.316 75.1934 185.451 75.1934C182.001 75.1934 179.331 74.1029 177.443 71.9219C175.588 69.7083 174.025 66.6322 172.756 62.6934C171.617 62.6934 170.852 62.791 170.461 62.9863C170.461 65.3301 170.347 68.0156 170.119 71.043C169.891 74.0703 169.663 75.8607 169.436 76.4141C169.663 76.7396 169.973 77.0326 170.363 77.293C171.698 76.349 172.723 75.3561 173.439 74.3145C176.304 75.9095 178.534 76.9837 180.129 77.5371C181.757 78.123 183.726 78.416 186.037 78.416ZM229.543 8.39648C236.9 8.39648 240.578 11.0658 240.578 16.4043C240.578 21.7428 236.9 24.4121 229.543 24.4121C228.436 24.4121 227.395 24.2005 226.418 23.7773C225.474 23.3542 224.644 22.7845 223.928 22.0684C223.212 21.3197 222.642 20.457 222.219 19.4805C221.796 18.5039 221.584 17.4785 221.584 16.4043C221.584 15.3301 221.796 14.3047 222.219 13.3281C222.642 12.3516 223.212 11.5052 223.928 10.7891C224.644 10.0404 225.474 9.45443 226.418 9.03125C227.395 8.60807 228.436 8.39648 229.543 8.39648ZM225.051 12.2051C224.074 13.3444 223.586 14.7441 223.586 16.4043C223.586 17.2507 223.716 18.0482 223.977 18.7969C224.27 19.513 224.66 20.1478 225.148 20.7012C225.637 21.222 226.19 21.6452 226.809 21.9707C227.46 22.2637 228.143 22.4102 228.859 22.4102C229.543 22.4102 230.21 22.2637 230.861 21.9707C231.512 21.6452 232.082 21.222 232.57 20.7012C233.059 20.1478 233.449 19.513 233.742 18.7969C234.035 18.0482 234.182 17.2507 234.182 16.4043C234.182 15.5579 234.035 14.7767 233.742 14.0605C233.449 13.3118 233.059 12.6771 232.57 12.1562C232.082 11.6029 231.512 11.1797 230.861 10.8867C230.21 10.5612 229.543 10.3984 228.859 10.3984C228.176 10.3984 227.508 10.5449 226.857 10.8379C226.206 11.1309 225.604 11.5866 225.051 12.2051ZM244.777 74.7539C237.03 74.0378 233.124 72.4753 233.059 70.0664C232.733 60.3008 232.603 48.3053 232.668 34.0801C232.408 33.5592 231.838 33.1361 230.959 32.8105C226.434 34.9264 221.73 36.2611 216.848 36.8145C216.652 37.5957 216.652 38.3607 216.848 39.1094C220.526 39.3047 223.326 39.972 225.246 41.1113C225.539 53.2533 225.507 62.9049 225.148 70.0664C225.083 72.4753 222.316 74.0378 216.848 74.7539C216.522 75.5677 216.522 76.3652 216.848 77.1465C226.19 76.9512 235.5 76.9512 244.777 77.1465C245.103 76.3652 245.103 75.5677 244.777 74.7539ZM246.584 72.9473C247.105 74.9655 247.105 76.9349 246.584 78.8555C236.102 78.5299 225.604 78.5299 215.09 78.8555C214.536 76.9349 214.536 74.9655 215.09 72.9473C220.396 72.4264 223.081 71.4336 223.146 69.9688C223.57 60.8542 223.602 51.6257 223.244 42.2832C221.063 41.6322 218.345 41.209 215.09 41.0137C214.341 39.0605 214.341 36.9935 215.09 34.8125C220.005 34.5521 225.539 33.0872 231.691 30.418C235.207 30.6784 237.827 31.7363 239.553 33.5918C239.423 49.6074 239.553 61.7331 239.943 69.9688C240.041 71.4336 242.255 72.4264 246.584 72.9473ZM281.154 33.6895C280.764 34.5684 280.764 35.3333 281.154 35.9844C282.163 36.1146 283.091 36.375 283.938 36.7656C284.816 37.1237 285.435 37.6608 285.793 38.377C286.151 39.0605 285.842 39.8418 284.865 40.7207L274.953 50.0957H271.047C270.982 40.4277 270.949 25.0957 270.949 4.09961C270.624 3.51367 270.054 3.07422 269.24 2.78125C264.911 4.86458 259.882 6.19922 254.152 6.78516C253.957 7.59896 253.957 8.36393 254.152 9.08008C258.547 9.30794 261.688 9.97526 263.576 11.082C263.576 15.151 263.625 21.2708 263.723 29.4414C263.82 37.612 263.869 44.9688 263.869 51.5117C263.869 58.0221 263.723 64.2884 263.43 70.3105C263.365 72.7194 260.598 74.2819 255.129 74.998C254.738 75.8118 254.738 76.5768 255.129 77.293C259.426 77.0977 263.56 77 267.531 77C271.405 77 275.474 77.0977 279.738 77.293C280.161 76.5768 280.161 75.8118 279.738 74.998C274.139 74.2819 271.34 72.7194 271.34 70.3105C271.145 66.6973 271.047 61.0007 271.047 53.2207H274.855L288.137 70.3105C290.09 72.7845 289.032 74.2493 284.963 74.7051C284.572 75.4863 284.572 76.2513 284.963 77H296.145C299.823 77 303.957 77.0977 308.547 77.293C308.938 76.5768 308.938 75.8118 308.547 74.998C304.413 74.5423 301.516 73.7448 299.855 72.6055C298.911 71.987 298.081 71.222 297.365 70.3105L280.764 49.4121L289.357 40.7207C291.831 38.1816 295.933 36.6029 301.662 35.9844C301.923 35.2031 301.923 34.4382 301.662 33.6895C294.403 34.1126 287.567 34.1126 281.154 33.6895ZM280.275 31.6875C289.064 32.013 296.649 31.9805 303.029 31.5898C303.843 33.6081 303.892 35.7077 303.176 37.8887C297.089 38.5072 292.954 39.9069 290.773 42.0879L286.135 46.8242L303.859 69.0898C304.934 70.4245 305.878 71.3685 306.691 71.9219C307.538 72.4427 308.824 72.8659 310.549 73.1914C311.298 75.3398 311.232 77.3092 310.354 79.0996C303.68 78.709 294.973 78.709 284.23 79.0996C283.254 77.0488 283.124 75.0794 283.84 73.1914C285.793 72.8008 286.395 71.8405 285.646 70.3105L277.932 60.4961C277.932 64.6953 278.046 67.9668 278.273 70.3105C278.404 71.8405 279.234 72.8008 280.764 73.1914C281.415 74.9167 281.35 76.8861 280.568 79.0996C271.682 78.9043 262.746 78.9043 253.762 79.0996C252.427 77.1139 252.362 75.1445 253.566 73.1914C258.742 72.5404 261.379 71.5475 261.477 70.2129C261.607 66.9902 261.672 59.8125 261.672 48.6797C261.672 45.9453 261.656 41.86 261.623 36.4238C261.59 30.9551 261.574 27.0163 261.574 24.6074V12.3027C259.426 11.6191 256.447 11.1797 252.639 10.9844C251.923 9.0638 251.923 6.99674 252.639 4.7832C257.196 4.39258 262.974 2.92773 269.973 0.388672C273.488 0.649089 276.109 1.72331 277.834 3.61133V44.4805L283.449 39.207C283.905 38.7513 283.872 38.4095 283.352 38.1816C283.091 38.1165 282.017 37.9212 280.129 37.5957C279.152 35.7402 279.201 33.7708 280.275 31.6875Z" fill="#484847"/>
</svg>
